{
  "accessors": [
    {
      "bufferView": 2,
      "componentType": 5126,
      "count": 48,
      "max": [
        39.635982513427734,
        4.4096431732177734,
        194.70793151855469
      ],
      "min": [
        -40.07830810546875,
        4.3212428092956543,
        111.35513305664062
      ],
      "type": "VEC3"
    },
    {
      "bufferView": 2,
      "byteOffset": 576,
      "componentType": 5126,
      "count": 48,
      "max": [
        1,
        1,
        1
      ],
      "min": [
        -1,
        -1,
        -1
      ],
      "type": "VEC3"
    },
    {
      "bufferView": 1,
      "componentType": 5126,
      "count": 48,
      "max": [
        0.99638497829437256,
        0.98075097799301147
      ],
      "min": [
        0.43538001179695129,
        0.11284399777650833
      ],
      "type": "VEC2"
    },
    {
      "bufferView": 0,
      "componentType": 5125,
      "count": 72,
      "max": [
        47
      ],
      "min": [
        0
      ],
      "type": "SCALAR"
    },
    {
      "bufferView": 2,
      "byteOffset": 1152,
      "componentType": 5126,
      "count": 47194,
      "max": [
        54.049999237060547,
        34.623878479003906,
        225.39607238769531
      ],
      "min": [
        -54.549999237060547,
        -17.573600769042969,
        25.547428131103516
      ],
      "type": "VEC3"
    },
    {
      "bufferView": 2,
      "byteOffset": 567480,
      "componentType": 5126,
      "count": 47194,
      "max": [
        1,
        1,
        1
      ],
      "min": [
        -1,
        -1,
        -1
      ],
      "type": "VEC3"
    },
    {
      "bufferView": 3,
      "componentType": 5126,
      "count": 47194,
      "max": [
        1,
        1,
        0.89130568504333496,
        1
      ],
      "min": [
        -0.88968205451965332,
        -0.8660438060760498,
        -0.87171047925949097,
        -1
      ],
      "type": "VEC4"
    },
    {
      "bufferView": 1,
      "byteOffset": 384,
      "componentType": 5126,
      "count": 47194,
      "max": [
        1.8581839799880981,
        3.0999801158905029
      ],
      "min": [
        -0.85887199640274048,
        -1.8976999521255493
      ],
      "type": "VEC2"
    },
    {
      "bufferView": 0,
      "byteOffset": 288,
      "componentType": 5125,
      "count": 167322,
      "max": [
        47193
      ],
      "min": [
        0
      ],
      "type": "SCALAR"
    },
    {
      "bufferView": 2,
      "byteOffset": 1133808,
      "componentType": 5126,
      "count": 6,
      "max": [
        0.11175099760293961,
        -11.715940475463867,
        13.825725555419922
      ],
      "min": [
        -0.11175099760293961,
        -11.728120803833008,
        12.969365119934082
      ],
      "type": "VEC3"
    },
    {
      "bufferView": 1,
      "byteOffset": 377936,
      "componentType": 5126,
      "count": 6,
      "max": [
        0,
        0
      ],
      "min": [
        0,
        0
      ],
      "type": "VEC2"
    },
    {
      "bufferView": 0,
      "byteOffset": 669576,
      "componentType": 5125,
      "count": 8,
      "max": [
        5
      ],
      "min": [
        0
      ],
      "type": "SCALAR"
    },
    {
      "bufferView": 2,
      "byteOffset": 1133880,
      "componentType": 5126,
      "count": 10668,
      "max": [
        57.449642181396484,
        33.823875427246094,
        101.90263366699219
      ],
      "min": [
        -57.449642181396484,
        -16.175773620605469,
        -0
      ],
      "type": "VEC3"
    },
    {
      "bufferView": 2,
      "byteOffset": 1261896,
      "componentType": 5126,
      "count": 10668,
      "max": [
        1,
        1,
        1
      ],
      "min": [
        -1,
        -1,
        -1
      ],
      "type": "VEC3"
    },
    {
      "bufferView": 3,
      "byteOffset": 755104,
      "componentType": 5126,
      "count": 10668,
      "max": [
        1,
        1,
        1,
        1
      ],
      "min": [
        -1,
        -1,
        -1,
        -1
      ],
      "type": "VEC4"
    },
    {
      "bufferView": 1,
      "byteOffset": 377984,
      "componentType": 5126,
      "count": 10668,
      "max": [
        0.99756902456283569,
        0.99753397703170776
      ],
      "min": [
        0.0024280000943690538,
        0.0024280000943690538
      ],
      "type": "VEC2"
    },
    {
      "bufferView": 0,
      "byteOffset": 669608,
      "componentType": 5125,
      "count": 35388,
      "max": [
        10667
      ],
      "min": [
        0
      ],
      "type": "SCALAR"
    },
    {
      "bufferView": 2,
      "byteOffset": 1389912,
      "componentType": 5126,
      "count": 2,
      "max": [
        0,
        3.5856010913848877,
        207.52592468261719
      ],
      "min": [
        0,
        3.4485430717468262,
        207.52580261230469
      ],
      "type": "VEC3"
    },
    {
      "bufferView": 1,
      "byteOffset": 463328,
      "componentType": 5126,
      "count": 2,
      "max": [
        0,
        0
      ],
      "min": [
        0,
        0
      ],
      "type": "VEC2"
    },
    {
      "bufferView": 0,
      "byteOffset": 811160,
      "componentType": 5125,
      "count": 2,
      "max": [
        1
      ],
      "min": [
        0
      ],
      "type": "SCALAR"
    },
    {
      "bufferView": 2,
      "byteOffset": 1389936,
      "componentType": 5126,
      "count": 10271,
      "max": [
        57.111507415771484,
        33.823875427246094,
        221.40263366699219
      ],
      "min": [
        -57.511505126953125,
        -1.1381150484085083,
        101.90263366699219
      ],
      "type": "VEC3"
    },
    {
      "bufferView": 2,
      "byteOffset": 1513188,
      "componentType": 5126,
      "count": 10271,
      "max": [
        1,
        1,
        1
      ],
      "min": [
        -1,
        -1,
        -1
      ],
      "type": "VEC3"
    },
    {
      "bufferView": 3,
      "byteOffset": 925792,
      "componentType": 5126,
      "count": 10271,
      "max": [
        1,
        1,
        1,
        1
      ],
      "min": [
        -1,
        -1,
        -1,
        -1
      ],
      "type": "VEC4"
    },
    {
      "bufferView": 1,
      "byteOffset": 463344,
      "componentType": 5126,
      "count": 10271,
      "max": [
        0.99753701686859131,
        0.99748402833938599
      ],
      "min": [
        0.0024570000823587179,
        0.0024570000823587179
      ],
      "type": "VEC2"
    },
    {
      "bufferView": 0,
      "byteOffset": 811168,
      "componentType": 5125,
      "count": 30774,
      "max": [
        10270
      ],
      "min": [
        0
      ],
      "type": "SCALAR"
    }
  ],
  "asset": {
    "extras": {
      "author": "Interiors3D (https://sketchfab.com/Interiors3D)",
      "license": "CC-BY-4.0 (http://creativecommons.org/licenses/by/4.0/)",
      "source": "https://sketchfab.com/3d-models/ppzb00-78d312ef747c49979f1a7afffcdb04ad",
      "title": "PPZB00"
    },
    "generator": "Sketchfab-9.90.0",
    "version": "2.0"
  },
  "bufferViews": [
    {
      "buffer": 0,
      "byteLength": 934264,
      "byteOffset": 0,
      "name": "floatBufferViews",
      "target": 34963
    },
    {
      "buffer": 0,
      "byteLength": 545512,
      "byteOffset": 934264,
      "byteStride": 8,
      "name": "floatBufferViews",
      "target": 34962
    },
    {
      "buffer": 0,
      "byteLength": 1636440,
      "byteOffset": 1479776,
      "byteStride": 12,
      "name": "floatBufferViews",
      "target": 34962
    },
    {
      "buffer": 0,
      "byteLength": 1090128,
      "byteOffset": 3116216,
      "byteStride": 16,
      "name": "floatBufferViews",
      "target": 34962
    }
  ],
  "buffers": [
    {
      "byteLength": 4206344,
      "uri": "scene.bin"
    }
  ],
  "images": [
    {
      "uri": "textures/Metal.001_baseColor.jpeg"
    },
    {
      "uri": "textures/Metal.001_metallicRoughness.png"
    },
    {
      "uri": "textures/Metal.001_normal.png"
    },
    {
      "uri": "textures/Romance_bot_baseColor.jpeg"
    },
    {
      "uri": "textures/Romance_bot_metallicRoughness.png"
    },
    {
      "uri": "textures/Romance_bot_normal.png"
    },
    {
      "uri": "textures/Romance_top_baseColor.jpeg"
    },
    {
      "uri": "textures/Romance_top_metallicRoughness.png"
    },
    {
      "uri": "textures/Romance_top_normal.png"
    }
  ],
  "materials": [
    {
      "alphaMode": "BLEND",
      "doubleSided": true,
      "name": "Glass",
      "pbrMetallicRoughness": {
        "baseColorFactor": [
          0.50076200000000004,
          0.50076200000000004,
          0.50076200000000004,
          0.20000000000000001
        ],
        "metallicFactor": 0,
        "roughnessFactor": 0.029999999999999999
      }
    },
    {
      "doubleSided": true,
      "name": "Metal.001",
      "normalTexture": {
        "index": 2,
        "scale": 1,
        "texCoord": 0
      },
      "pbrMetallicRoughness": {
        "baseColorFactor": [
          1,
          1,
          1,
          1
        ],
        "baseColorTexture": {
          "index": 0,
          "texCoord": 0
        },
        "metallicFactor": 1,
        "metallicRoughnessTexture": {
          "index": 1,
          "texCoord": 0
        },
        "roughnessFactor": 1
      }
    },
    {
      "doubleSided": true,
      "name": "Romance_bot",
      "normalTexture": {
        "index": 5,
        "scale": 1,
        "texCoord": 0
      },
      "pbrMetallicRoughness": {
        "baseColorFactor": [
          0.90000000000000002,
          0.90000000000000002,
          0.90000000000000002,
          1
        ],
        "baseColorTexture": {
          "index": 3,
          "texCoord": 0
        },
        "metallicFactor": 0,
        "metallicRoughnessTexture": {
          "index": 4,
          "texCoord": 0
        },
        "roughnessFactor": 1
      }
    },
    {
      "doubleSided": true,
      "name": "Romance_top",
      "normalTexture": {
        "index": 8,
        "scale": 1,
        "texCoord": 0
      },
      "pbrMetallicRoughness": {
        "baseColorFactor": [
          0.90000000000000002,
          0.90000000000000002,
          0.90000000000000002,
          1
        ],
        "baseColorTexture": {
          "index": 6,
          "texCoord": 0
        },
        "metallicFactor": 0,
        "metallicRoughnessTexture": {
          "index": 7,
          "texCoord": 0
        },
        "roughnessFactor": 1
      }
    }
  ],
  "meshes": [
    {
      "primitives": [
        {
          "attributes": {
            "NORMAL": 1,
            "POSITION": 0,
            "TEXCOORD_0": 2
          },
          "indices": 3,
          "material": 0,
          "mode": 4
        }
      ]
    },
    {
      "primitives": [
        {
          "attributes": {
            "NORMAL": 5,
            "POSITION": 4,
            "TANGENT": 6,
            "TEXCOORD_0": 7
          },
          "indices": 8,
          "material": 1,
          "mode": 4
        }
      ]
    },
    {
      "primitives": [
        {
          "attributes": {
            "POSITION": 9,
            "TEXCOORD_0": 10
          },
          "indices": 11,
          "material": 2,
          "mode": 1
        }
      ]
    },
    {
      "primitives": [
        {
          "attributes": {
            "NORMAL": 13,
            "POSITION": 12,
            "TANGENT": 14,
            "TEXCOORD_0": 15
          },
          "indices": 16,
          "material": 2,
          "mode": 4
        }
      ]
    },
    {
      "primitives": [
        {
          "attributes": {
            "POSITION": 17,
            "TEXCOORD_0": 18
          },
          "indices": 19,
          "material": 3,
          "mode": 1
        }
      ]
    },
    {
      "primitives": [
        {
          "attributes": {
            "NORMAL": 21,
            "POSITION": 20,
            "TANGENT": 22,
            "TEXCOORD_0": 23
          },
          "indices": 24,
          "material": 3,
          "mode": 4
        }
      ]
    }
  ],
  "nodes": [
    {
      "children": [
        1
      ],
      "name": "RootNode (gltf orientation matrix)",
      "rotation": [
        -0.70710678118654746,
        -0,
        -0,
        0.70710678118654757
      ]
    },
    {
      "children": [
        2
      ],
      "name": "RootNode (model correction matrix)"
    },
    {
      "children": [
        3,
        4,
        5,
        6,
        7,
        8
      ],
      "name": "W51 - PPZB00 - Sketchfab - mesh.obj.cleaner.materialmerger.gles"
    },
    {
      "mesh": 0,
      "name": ""
    },
    {
      "mesh": 1,
      "name": ""
    },
    {
      "mesh": 2,
      "name": ""
    },
    {
      "mesh": 3,
      "name": ""
    },
    {
      "mesh": 4,
      "name": ""
    },
    {
      "mesh": 5,
      "name": ""
    }
  ],
  "samplers": [
    {
      "magFilter": 9729,
      "minFilter": 9987,
      "wrapS": 10497,
      "wrapT": 10497
    }
  ],
  "scene": 0,
  "scenes": [
    {
      "name": "OSG_Scene",
      "nodes": [
        0
      ]
    }
  ],
  "textures": [
    {
      "sampler": 0,
      "source": 0
    },
    {
      "sampler": 0,
      "source": 1
    },
    {
      "sampler": 0,
      "source": 2
    },
    {
      "sampler": 0,
      "source": 3
    },
    {
      "sampler": 0,
      "source": 4
    },
    {
      "sampler": 0,
      "source": 5
    },
    {
      "sampler": 0,
      "source": 6
    },
    {
      "sampler": 0,
      "source": 7
    },
    {
      "sampler": 0,
      "source": 8
    }
  ]
}

